<svg id="Layer_1" data-name="Layer 1" xmlns="http://www.w3.org/2000/svg" viewBox="0 0 20.49 20.06"><defs><style>.cls-1{fill:#020202;fill-rule:evenodd;}</style></defs><title>pi</title><path class="cls-1" d="M316.28,386H300.89c-5.1,0-3.44,3-5.1,5a5.51,5.51,0,0,1,1,0c.94-.89.83-2,4.08-2h15.32Z" transform="translate(-295.79 -386)"/><path class="cls-1" d="M303,388.52h-2c.31,10.15-.87,10.15-4,14.39.19,3.15,2,3.15,3,3.15C302.74,406.06,303.75,388.52,303,388.52Z" transform="translate(-295.79 -386)"/><path class="cls-1" d="M309,388.52s-1,10.28-1,13.37c-.19,2.05.94,4.17,3,4.11,3.31.06,5.06-3.08,5-6.17.06,0,.06-.06-1,0a3.09,3.09,0,0,1-3,3.09c-3.31,0-1-7.2-1-14.4Z" transform="translate(-295.79 -386)"/></svg>