<svg id="Layer_2" data-name="Layer 2" xmlns="http://www.w3.org/2000/svg" viewBox="0 0 24 24"><defs><style>.cls-1{fill:none;}.cls-1,.cls-2{fill-rule:evenodd;}.cls-2{fill:#020202;}</style></defs><title>Artboard 2</title><path class="cls-1" d="M21,15.83h1s.06,6.09-5,6.17a3.09,3.09,0,0,1-3-3.08C13.79,15.44,15,6.15,15,5L9.19,5C9.41,7.5,8.86,21.72,6,22.06S3,19.2,3,18.91C7.06,13.81,7.08,13.26,7.08,5,4.1,4.85,3.51,6.18,2.81,7c-.29,0-.44,0-1-.08C3,5.8,2.19,2.38,5.73,2.06l3,0C11.31,2,15,2,17.87,2h4.41a26.2,26.2,0,0,0-.07,3H17c.31,4.17-2.58,14,1,13.92A3.11,3.11,0,0,0,21,15.83Z"/><path class="cls-2" d="M24,24V0H0V24H10.32V5H9.19C9.24,15.5,7.66,21.84,6,22.06c-2.09.19-2.92-1.39-3-3.15C6.66,14.22,7.16,13.26,7.08,5c-3,.13-3,.57-4.27,2.08a4.12,4.12,0,0,1-1-.08C3.16,5.63,2,2.53,5.73,2.06L22.28,2l-.07,3S17.81,4.94,17,5c0,7.66-2.28,13.53,1,13.92a3.11,3.11,0,0,0,3-3.09h1s.28,6-5,6.17c-2.62.08-3-3.08-3-3.08.1-4.2.36-8.23.93-13.92H10.32v6.07s0,1.37,0,3V24Z"/></svg>